<svg width="203.000000pt" height="128.000000pt" viewBox="0 0 203.000000 128.000000"
 preserveAspectRatio="xMidYMid meet">
    <g transform="translate(0.000000,128.000000) scale(0.100000,-0.100000)"
    fill="#fca001" stroke="none">
    <path d="M0 640 l0 -640 1015 0 1015 0 0 640 0 640 -1015 0 -1015 0 0 -640z
    m1245 610 c10 -11 16 -20 13 -20 -3 0 -13 9 -23 20 -10 11 -16 20 -13 20 3 0
    13 -9 23 -20z m-295 -325 l0 -95 -50 0 -49 0 -7 50 -7 50 -148 0 -149 0 0
    -120 0 -120 150 0 150 0 0 -45 0 -45 -150 0 -150 0 0 -135 0 -135 155 0 155 0
    0 50 0 50 50 0 50 0 0 -95 0 -95 -305 0 -305 0 0 35 c0 30 4 35 28 41 68 15
    62 -15 62 314 l0 300 -22 4 c-13 3 -32 7 -43 8 -15 2 -21 12 -23 41 l-3 37
    305 0 306 0 0 -95z m-905 -895 c10 -11 16 -20 13 -20 -3 0 -13 9 -23 20 -10
    11 -16 20 -13 20 3 0 13 -9 23 -20z"/>
    </g>
</svg>
